<?xml version="1.0" encoding="UTF-8"?> <svg xmlns="http://www.w3.org/2000/svg" xmlns:xlink="http://www.w3.org/1999/xlink" width="550" zoomAndPan="magnify" viewBox="3 68 282 115" height="224" preserveAspectRatio="xMidYMid meet" version="1.0"><defs><g></g><clipPath id="55a685ef90"><path d="M 144.652344 69.902344 L 282 69.902344 L 282 137.972656 L 144.652344 137.972656 Z M 144.652344 69.902344 " clip-rule="nonzero"></path></clipPath></defs><g clip-path="url(#55a685ef90)"><path fill="#FFFFFF" d="M 224.664062 108.175781 C 224.976562 108.09375 225.34375 108.332031 225.34375 108.632812 C 225.355469 122.105469 225.191406 121.574219 225.402344 121.554688 C 225.515625 121.542969 225.5625 121.402344 225.570312 121.296875 C 225.582031 121.148438 225.496094 120.988281 225.648438 120.867188 L 225.644531 120.867188 C 225.84375 120.890625 226.046875 120.910156 226.25 120.929688 C 226.25 121.097656 226.25 121.265625 226.25 121.519531 C 226.378906 121.289062 226.523438 121.222656 226.710938 121.257812 C 226.773438 121.273438 226.839844 121.253906 226.835938 121.167969 C 226.828125 120.921875 226.878906 120.675781 226.808594 120.433594 C 226.753906 120.226562 226.585938 120.386719 226.480469 120.335938 C 226.34375 120.265625 226.113281 120.503906 226.089844 120.308594 C 226.066406 120.125 226.332031 120.242188 226.464844 120.210938 C 226.632812 120.171875 226.777344 120.070312 226.960938 120.074219 C 227.085938 120.074219 226.960938 93.148438 226.960938 93.097656 C 226.945312 92.515625 227.105469 92.714844 227.519531 92.585938 C 227.53125 92.601562 227.515625 92.660156 227.5625 92.613281 C 227.546875 92.605469 227.527344 92.601562 227.511719 92.59375 C 227.683594 92.347656 228.257812 92.632812 228.527344 91.757812 C 228.546875 91.699219 228.585938 91.660156 228.628906 91.667969 C 228.863281 91.730469 229.027344 91.511719 229.261719 91.527344 C 229.457031 91.539062 229.730469 91.167969 229.746094 90.949219 C 229.769531 90.550781 229.671875 90.152344 229.691406 89.757812 C 229.914062 85.472656 229.390625 85.351562 229.886719 84.417969 C 229.941406 84.324219 230.21875 84.5 230.226562 84.667969 C 230.253906 85.105469 230.355469 85.578125 230.269531 85.972656 C 230.019531 87.128906 230.441406 88.140625 230.195312 90.972656 C 230.1875 91.023438 230.089844 91.414062 230.4375 91.203125 C 230.496094 91.167969 230.507812 91.1875 230.546875 91.417969 C 230.53125 91.425781 230.519531 91.429688 230.503906 91.4375 C 230.507812 91.445312 230.515625 91.453125 230.519531 91.460938 C 230.53125 91.445312 230.539062 91.433594 230.546875 91.417969 C 230.996094 91.828125 231.585938 91.507812 231.535156 91.804688 C 231.492188 92.058594 231.640625 92.300781 231.570312 92.554688 C 231.546875 92.640625 231.683594 92.648438 231.910156 92.5625 L 231.902344 92.570312 C 232.214844 92.691406 232.542969 92.601562 232.863281 92.625 C 232.90625 92.625 232.972656 92.582031 232.910156 92.5 C 232.863281 92.4375 232.847656 92.355469 232.816406 92.28125 C 232.816406 92.28125 232.832031 92.289062 232.832031 92.289062 C 232.890625 92.265625 232.890625 92.238281 232.832031 92.214844 L 232.816406 92.222656 C 232.84375 92.097656 232.636719 92.125 232.667969 91.988281 C 232.820312 91.941406 232.84375 92.1875 232.996094 92.132812 C 233.015625 92.132812 233.035156 92.128906 233.054688 92.128906 C 233.046875 92.121094 233.042969 92.109375 233.035156 92.097656 C 233.023438 92.113281 233.007812 92.125 232.996094 92.140625 C 233.085938 92.171875 233.058594 92.007812 233.175781 92.054688 C 233.089844 92.269531 233.132812 92.34375 233.394531 92.292969 C 233.59375 92.253906 233.8125 92.308594 234.023438 92.261719 C 234.132812 92.234375 234.222656 92.28125 234.25 92.40625 C 234.273438 92.390625 234.242188 92.410156 234.214844 92.425781 C 234.226562 92.441406 234.242188 92.457031 234.257812 92.472656 L 234.25 92.46875 C 234.234375 92.542969 234.054688 92.570312 234.144531 92.640625 C 234.417969 92.851562 234.664062 92.429688 234.84375 92.566406 C 234.957031 92.652344 235.003906 92.820312 234.828125 92.945312 C 234.800781 92.964844 234.808594 94.730469 234.808594 94.761719 C 234.808594 94.859375 234.808594 94.980469 234.914062 94.988281 C 235.074219 94.996094 235.371094 95.097656 235.171875 95.222656 C 235.636719 95.273438 236.0625 95.308594 236.488281 95.347656 C 236.8125 95.378906 237.128906 95.222656 237.457031 95.359375 C 237.585938 95.414062 237.648438 95.480469 237.636719 95.582031 C 237.382812 97.78125 237.652344 107.3125 237.511719 111.46875 C 237.820312 111.53125 240.9375 111.703125 241.121094 111.84375 C 241.207031 111.304688 241.078125 109.984375 241.15625 109.335938 C 241.261719 108.46875 241.25 108.367188 241.679688 108.382812 C 242.378906 108.40625 241.726562 107.761719 242.449219 107.761719 C 243.167969 107.757812 242.9375 107.707031 244.050781 107.585938 C 244.050781 107.585938 244.0625 107.574219 244.0625 107.574219 L 244.046875 107.582031 C 244.21875 107.34375 243.914062 107.328125 243.875 107.1875 C 243.980469 107.148438 244.0625 107.125 244.210938 107.1875 C 244.46875 107.296875 244.765625 107.199219 245.042969 107.175781 C 245.3125 107.152344 244.90625 105.359375 245.15625 104.796875 C 245.25 104.585938 245.433594 104.796875 245.578125 104.75 C 246.011719 104.605469 246.453125 104.828125 246.492188 104.589844 C 246.511719 104.464844 246.964844 104.574219 247.128906 104.558594 C 247.253906 104.542969 247.226562 104.394531 247.238281 104.296875 C 247.269531 103.90625 247.285156 103.898438 247.671875 103.898438 C 249.40625 103.886719 248.5 103.746094 248.851562 103.503906 C 249 103.539062 248.777344 103.734375 248.957031 103.753906 C 249.234375 103.785156 248.949219 103.449219 249.195312 103.457031 C 249.242188 103.519531 249.128906 103.585938 249.144531 103.671875 C 249.160156 103.75 249.136719 103.847656 249.265625 103.835938 C 249.507812 103.8125 249.539062 103.960938 249.515625 104.144531 C 249.46875 104.523438 249.824219 104.332031 250.132812 104.554688 C 250.464844 104.789062 250.601562 104.484375 250.785156 104.332031 C 250.90625 104.238281 250.6875 104.089844 250.789062 103.964844 C 250.964844 104.011719 250.800781 104.203125 250.933594 104.265625 C 251.03125 104.214844 250.867188 104.117188 250.996094 104.0625 C 251.03125 104.535156 251.375 104.382812 251.652344 104.382812 C 252.527344 104.386719 252.792969 104.160156 252.792969 104.695312 C 252.8125 113.058594 252.726562 118.867188 252.726562 118.867188 C 252.726562 119.167969 252.957031 118.953125 253.609375 119.089844 C 253.777344 119.128906 253.957031 119.042969 254.015625 119.320312 C 254.046875 119.460938 254.273438 119.394531 254.410156 119.402344 C 254.953125 119.433594 254.957031 119.429688 254.953125 118.878906 C 254.945312 117.355469 255 115.828125 254.9375 114.300781 C 254.929688 114.167969 254.773438 113.304688 255.0625 112.839844 C 255.421875 112.265625 254.796875 111.558594 255.582031 110.902344 C 255.859375 110.671875 255.933594 110.324219 256.015625 110.023438 C 256.132812 109.585938 256.339844 109.1875 256.4375 108.75 C 256.46875 108.601562 256.558594 108.566406 256.628906 108.738281 C 257.222656 110.191406 257.113281 110.128906 257.414062 110.082031 C 259.667969 109.71875 259.722656 110.273438 259.703125 109.386719 C 259.675781 108.113281 259.785156 106.839844 259.78125 105.566406 C 259.78125 105.453125 259.660156 105.367188 259.929688 105.355469 C 259.925781 105.34375 259.917969 105.335938 259.914062 105.324219 C 259.902344 105.335938 259.886719 105.347656 259.871094 105.359375 C 260.144531 105.179688 260.476562 105.21875 260.777344 105.144531 C 261.253906 105.027344 261.742188 105.113281 262.234375 105.128906 C 262.226562 104.949219 263.433594 105.007812 264.226562 105.050781 C 265.195312 105.101562 264.625 104.675781 265.09375 104.4375 L 265.082031 104.453125 C 265.089844 104.46875 265.097656 104.480469 265.109375 104.496094 C 265.125 104.480469 265.140625 104.46875 265.15625 104.453125 L 265.148438 104.4375 C 266.113281 103.4375 267.242188 103.679688 267.449219 103.773438 C 268.097656 104.0625 268.453125 103.402344 268.488281 104.003906 C 268.503906 104.332031 269.261719 104.042969 269.574219 104.117188 C 269.8125 104.171875 270.140625 103.96875 270.265625 104.351562 C 270.300781 104.457031 270.375 104.394531 270.4375 104.402344 C 270.96875 104.472656 270.832031 104.503906 270.839844 106.832031 C 270.867188 113.558594 270.839844 114.738281 270.890625 114.839844 C 270.941406 114.15625 271.78125 114.460938 272.824219 114.402344 C 272.980469 114.394531 273.121094 114.492188 273.292969 114.476562 C 273.414062 114.46875 273.433594 114.605469 273.433594 114.710938 C 273.433594 115.65625 273.335938 115.78125 273.6875 115.765625 C 275.933594 115.675781 275.066406 115.175781 275.257812 119.535156 C 275.273438 119.828125 275.394531 119.902344 275.632812 119.804688 C 275.832031 119.722656 275.988281 119.855469 276.171875 119.851562 C 276.628906 119.835938 276.492188 119.796875 276.550781 118.144531 C 276.550781 118.101562 276.582031 118.058594 276.644531 118.019531 C 276.644531 119.753906 276.605469 119.671875 276.722656 119.71875 C 277.300781 119.949219 277.175781 119.285156 277.914062 119.65625 C 278.160156 119.78125 278.195312 119.699219 278.191406 119.476562 C 278.183594 118.847656 278.292969 118.226562 278.253906 117.597656 C 278.25 117.542969 278.230469 117.476562 278.328125 117.433594 C 278.433594 117.5625 278.3125 117.980469 278.335938 118.285156 C 278.367188 118.644531 278.339844 118.640625 278.695312 118.570312 C 279.128906 118.480469 278.800781 119.257812 279.015625 119.277344 C 279.121094 119.285156 279.125 119.144531 279.113281 119.089844 C 279.011719 118.550781 279.480469 118.777344 279.53125 118.722656 C 279.878906 118.386719 280.261719 118.703125 280.621094 118.664062 C 281.15625 118.601562 280.542969 119.714844 281.03125 119.78125 C 281.03125 125.71875 281.03125 131.660156 281.035156 137.601562 C 281.035156 138.046875 289.132812 137.882812 145.027344 137.882812 C 145.027344 117.421875 144.652344 122.0625 145.914062 121.554688 C 146.464844 121.332031 147.328125 121.636719 147.390625 121.421875 C 147.597656 120.761719 147.847656 121.378906 147.765625 120.894531 C 147.609375 119.984375 148.457031 121.105469 148.507812 120.269531 C 148.511719 120.199219 148.441406 120.097656 148.585938 120.089844 C 148.683594 120.085938 148.800781 120.097656 148.820312 119.964844 C 148.839844 119.824219 148.664062 119.871094 148.617188 119.785156 C 148.667969 119.675781 148.777344 119.703125 148.832031 119.722656 C 149.628906 120.023438 150.863281 119.628906 151.164062 120 C 151.257812 120.113281 151.570312 120.070312 151.785156 120.070312 C 152.320312 120.070312 151.992188 120.640625 152.601562 120.582031 C 152.683594 120.574219 152.765625 120.582031 152.851562 120.582031 C 153.226562 120.585938 153.222656 120.585938 153.21875 121 C 153.21875 121.128906 153.226562 121.292969 153.433594 121.242188 C 153.632812 121.191406 153.625 121.464844 153.820312 121.453125 C 154.132812 121.433594 154.460938 121.503906 154.75 121.371094 C 155.007812 121.253906 155.25 121.292969 155.492188 121.328125 C 155.847656 121.375 156.226562 121.1875 156.558594 121.445312 C 156.859375 121.675781 156.46875 120.238281 156.691406 116.285156 C 156.695312 116.234375 156.714844 116.179688 156.664062 116.148438 C 156.382812 115.972656 156.246094 115.648438 155.9375 115.449219 C 156.566406 115.277344 156.664062 114.8125 156.644531 114.28125 C 156.617188 113.34375 157.222656 112.34375 158.09375 112.039062 C 158.222656 111.996094 158.398438 111.878906 158.332031 111.667969 C 158.300781 111.570312 158.375 111.464844 158.410156 111.464844 C 158.71875 111.449219 158.625 111.214844 158.617188 111.0625 C 158.601562 110.707031 158.695312 110.34375 158.558594 109.992188 C 158.539062 109.941406 158.878906 109.265625 158.199219 108.925781 C 159.222656 108.207031 158.648438 108.605469 159.007812 106.980469 C 159.144531 106.359375 160.128906 106.46875 160.46875 105.988281 C 160.660156 105.710938 160.667969 105.695312 160.300781 105.554688 C 160.78125 105.515625 160.5 105.203125 160.675781 104.75 C 160.75 104.558594 160.699219 104.480469 160.519531 104.375 C 160.234375 104.210938 160.289062 103.667969 160.582031 103.519531 C 160.789062 103.417969 160.75 102.957031 160.550781 102.765625 C 160.300781 102.519531 160.019531 102.296875 159.964844 101.894531 C 159.945312 101.738281 159.65625 101.78125 159.558594 101.621094 C 159.570312 101.484375 160.078125 101.582031 159.984375 101.183594 C 159.964844 101.09375 160.015625 101.050781 160.105469 101.050781 C 160.117188 101.066406 160.101562 101.125 160.148438 101.078125 C 160.132812 101.074219 160.113281 101.066406 160.097656 101.058594 C 160.015625 100.675781 160.773438 100.597656 160.726562 99.953125 C 160.632812 98.65625 161.085938 99.304688 160.960938 100.011719 C 160.847656 100.636719 162.125 101.160156 161.59375 101.503906 C 161.746094 101.613281 162.0625 101.457031 162.078125 101.6875 C 162.085938 101.832031 162.015625 101.796875 161.722656 101.792969 C 161.722656 101.796875 161.710938 101.789062 161.710938 101.789062 L 161.734375 101.792969 C 161.679688 101.972656 161.640625 102.136719 161.527344 102.316406 C 161.332031 102.625 160.835938 102.789062 160.957031 103.28125 C 160.980469 103.390625 160.949219 103.488281 161.121094 103.542969 C 161.402344 103.628906 161.449219 104.160156 161.214844 104.359375 C 161.113281 104.445312 160.945312 104.503906 160.976562 104.65625 C 161.042969 104.9375 160.921875 105.261719 161.15625 105.5 C 161.21875 105.5625 161.304688 105.625 161.230469 105.6875 C 161.007812 105.882812 161.183594 105.945312 161.3125 106.070312 C 161.917969 106.683594 162.792969 106.574219 162.703125 107.886719 C 162.625 109.011719 163.613281 109 163.269531 109.265625 C 162.710938 109.691406 163.15625 110.070312 163.050781 110.304688 C 162.886719 110.675781 162.984375 111.070312 162.949219 111.453125 C 162.9375 111.558594 163.039062 111.550781 163.070312 111.609375 C 163.132812 111.726562 163.464844 111.730469 163.222656 111.984375 C 163.210938 111.996094 163.3125 112.101562 163.394531 112.140625 C 164.292969 112.570312 164.71875 113.324219 164.855469 114.324219 C 165.035156 114.292969 164.917969 114.128906 165.039062 114.066406 C 165.097656 114.492188 165.007812 114.917969 165.152344 115.324219 C 165.152344 115.273438 165.078125 103.789062 165.132812 103.78125 C 165.5 103.726562 165.832031 103.542969 166.207031 103.523438 C 166.664062 103.5 166.46875 103.289062 166.269531 102.824219 C 166.664062 102.636719 166.609375 103.066406 166.976562 103.410156 C 167.195312 103.609375 167.453125 103.589844 167.578125 103.023438 C 167.589844 102.972656 167.59375 102.894531 167.652344 102.917969 C 167.859375 103 168.054688 102.898438 168.257812 102.90625 C 168.324219 102.910156 168.394531 102.941406 168.457031 102.867188 C 168.597656 102.699219 168.742188 102.539062 168.894531 102.867188 C 168.988281 103.074219 169.292969 102.691406 169.476562 102.921875 C 169.488281 102.933594 169.515625 102.953125 169.527344 102.949219 C 170.199219 102.574219 170.910156 102.917969 171.601562 102.851562 C 172.824219 102.738281 173.300781 102.988281 173.160156 102.625 C 173.132812 102.558594 173.082031 102.433594 173.246094 102.417969 C 173.796875 102.355469 173.117188 102.921875 173.992188 102.914062 C 174.460938 102.90625 174.460938 102.910156 174.5 103.363281 C 174.507812 103.429688 174.480469 103.53125 174.589844 103.523438 C 174.890625 103.496094 175.148438 103.679688 175.460938 103.664062 C 175.863281 103.644531 176.257812 103.808594 176.671875 103.796875 C 176.875 103.792969 176.917969 103.921875 176.917969 104.121094 C 176.878906 110.34375 176.945312 115.582031 176.976562 116.015625 C 176.96875 116.019531 176.957031 116.027344 176.945312 116.035156 C 176.96875 116.035156 176.964844 116.042969 176.972656 116.007812 C 177.023438 120.683594 176.800781 120.644531 177.273438 120.652344 C 177.5 120.652344 177.78125 120.535156 177.914062 120.898438 C 177.945312 120.984375 178.269531 121.089844 178.433594 120.960938 C 178.820312 120.664062 179.316406 121.265625 179.585938 120.800781 C 179.597656 120.78125 179.648438 120.765625 179.664062 120.777344 C 180.054688 121.078125 179.789062 120.671875 179.890625 118.765625 C 179.90625 118.441406 179.964844 118.125 179.890625 117.796875 C 179.859375 117.648438 179.996094 117.617188 180.140625 117.613281 C 180.300781 117.609375 180.398438 117.636719 180.378906 117.824219 C 180.273438 118.914062 180.398438 120 180.382812 120.695312 C 180.378906 120.992188 180.578125 120.9375 180.753906 120.933594 C 180.863281 120.929688 180.875 120.929688 180.867188 120.71875 C 180.816406 119.523438 180.796875 118.328125 180.792969 117.132812 C 180.792969 116.78125 180.59375 115.027344 180.902344 114.839844 C 181.007812 114.777344 181.132812 114.773438 181.253906 114.773438 C 181.972656 114.773438 182.691406 114.722656 183.40625 114.664062 C 183.960938 114.617188 184.722656 114.695312 185.25 114.527344 C 185.476562 114.457031 185.492188 114.347656 185.539062 114.136719 C 185.625 113.761719 185.605469 113.339844 185.609375 112.960938 C 185.648438 110.859375 185.59375 108.757812 185.582031 106.65625 C 185.5625 102.761719 185.578125 98.867188 185.613281 94.976562 C 185.695312 85.683594 185.238281 86.089844 185.957031 85.722656 C 186.429688 85.480469 186.925781 85.6875 187.402344 85.605469 C 188.035156 85.496094 188.558594 85.789062 189.097656 86.03125 C 189.199219 85.925781 189.082031 85.757812 189.21875 85.675781 C 189.355469 85.753906 189.089844 86.1875 189.65625 86.277344 C 189.96875 86.324219 190.253906 86.570312 190.550781 86.730469 C 190.660156 86.785156 190.628906 86.890625 190.628906 86.972656 C 190.644531 88.488281 190.550781 88.625 190.851562 88.402344 C 191 88.292969 190.867188 88.644531 191.046875 88.625 C 191.175781 88.609375 191.121094 88.496094 191.121094 88.425781 C 191.125 87.613281 191.136719 86.800781 191.117188 85.988281 C 191.105469 85.355469 191.519531 85.683594 191.6875 85.097656 C 191.886719 84.394531 191.902344 84.125 191.863281 79.082031 C 191.855469 78.1875 192.417969 78.96875 192.703125 77.394531 C 192.75 77.132812 192.761719 76.871094 192.671875 76.609375 C 192.4375 75.917969 193 75.007812 192.632812 74.230469 C 192.601562 74.164062 192.582031 74.054688 192.613281 73.992188 C 192.9375 73.371094 192.554688 69.917969 192.976562 69.914062 C 193.25 69.910156 192.953125 70.285156 193.222656 70.753906 C 193.335938 70.949219 193.226562 71.148438 193.226562 71.347656 C 193.226562 72.066406 193.128906 72.804688 193.253906 73.503906 C 193.371094 74.152344 193.101562 74.765625 193.242188 75.386719 C 193.449219 76.328125 193.125 78.042969 193.734375 78.074219 C 194.222656 78.097656 194.054688 78.503906 194.203125 78.5625 C 194.683594 78.738281 194.511719 78.804688 194.539062 82.746094 C 194.546875 83.542969 194.585938 84.339844 194.574219 85.140625 C 194.570312 85.386719 194.65625 85.523438 194.855469 85.582031 C 195.144531 85.664062 195.082031 85.730469 195.09375 87.296875 C 195.09375 87.367188 195.058594 87.449219 195.160156 87.472656 C 195.324219 87.507812 195.25 87.21875 195.410156 87.277344 C 195.746094 87.398438 196.105469 87.339844 196.449219 87.371094 C 196.835938 87.402344 197.21875 87.515625 197.617188 87.46875 C 197.851562 87.441406 198.0625 87.585938 198.292969 87.636719 C 198.863281 87.761719 198.554688 88.414062 198.625 91.289062 C 198.636719 91.859375 198.71875 98.796875 198.613281 99.132812 C 198.613281 99.132812 198.609375 99.128906 198.605469 99.125 C 198.613281 99.128906 198.617188 99.136719 198.621094 99.140625 C 198.617188 99.179688 198.613281 99.222656 198.605469 99.265625 C 198.59375 99.277344 198.535156 99.257812 198.578125 99.308594 C 198.585938 99.289062 198.59375 99.273438 198.597656 99.257812 C 198.707031 99.464844 198.941406 99.410156 199.105469 99.449219 C 199.558594 99.566406 200.03125 99.582031 200.480469 99.34375 C 200.855469 100.515625 200.765625 100.476562 200.765625 105.914062 C 200.765625 106.304688 200.746094 106.464844 200.894531 106.503906 C 201.046875 106.542969 201.207031 106.46875 201.257812 106.285156 C 201.304688 106.109375 201.359375 106.234375 201.410156 106.277344 C 201.394531 106.269531 201.378906 106.261719 201.363281 106.257812 C 201.359375 106.265625 201.359375 106.277344 201.355469 106.285156 C 201.375 106.28125 201.394531 106.28125 201.410156 106.277344 C 201.507812 106.347656 201.339844 106.425781 201.421875 106.523438 C 201.472656 106.585938 201.484375 106.648438 201.5625 106.589844 C 202.101562 106.199219 202.464844 106.65625 202.902344 106.839844 C 202.960938 106.789062 202.90625 106.695312 202.929688 106.625 C 202.996094 106.449219 203.242188 106.484375 203.25 106.640625 C 203.257812 106.859375 203.300781 107.078125 203.296875 107.296875 C 203.292969 107.503906 203.410156 107.582031 203.574219 107.585938 C 205.113281 107.625 204.964844 107.605469 204.972656 107.421875 C 205.015625 106.734375 204.980469 106.703125 205.113281 106.636719 C 205.179688 106.601562 205.25 106.664062 205.265625 106.707031 C 205.316406 106.863281 205.417969 106.789062 205.523438 106.800781 C 205.714844 106.820312 205.886719 106.582031 206.105469 106.792969 C 206.226562 106.902344 206.417969 106.671875 206.625 106.753906 C 206.699219 106.785156 206.699219 106.566406 206.644531 106.414062 C 207.175781 106.9375 207.289062 107.539062 207.160156 108.242188 C 207.328125 108.183594 207.398438 108.128906 207.546875 108.242188 C 207.714844 108.363281 208.039062 108.28125 208.296875 108.277344 C 208.359375 108.277344 208.367188 108.324219 208.425781 107.394531 C 208.4375 107.199219 208.578125 107.167969 208.65625 107.289062 C 208.765625 107.460938 208.894531 107.410156 209.03125 107.410156 C 209.535156 107.410156 210.035156 107.371094 210.519531 107.222656 C 210.546875 107.214844 210.605469 107.222656 210.605469 107.214844 C 210.691406 106.828125 210.90625 107.078125 211.105469 107.085938 C 211.46875 107.097656 211.847656 107.203125 212.207031 107.019531 C 212.320312 106.960938 212.398438 107.113281 212.515625 107.109375 C 212.8125 107.105469 213.109375 107.105469 213.410156 107.113281 C 214.085938 107.128906 213.875 104.078125 213.921875 118.199219 C 213.921875 118.363281 213.847656 118.550781 214.007812 118.691406 L 214 118.683594 C 214.066406 118.726562 214.132812 118.773438 214.199219 118.816406 C 214.195312 118.8125 214.195312 118.808594 214.191406 118.804688 C 214.191406 118.8125 214.191406 118.816406 214.1875 118.824219 C 214.53125 118.84375 214.871094 118.792969 215.191406 118.710938 C 215.808594 118.558594 215.34375 117.757812 215.585938 116.988281 C 215.667969 116.734375 215.96875 116.558594 216.210938 116.632812 L 216.207031 116.625 C 216.230469 116.695312 216.253906 116.667969 216.28125 116.625 L 216.273438 116.632812 C 216.3125 116.632812 216.355469 116.632812 216.394531 116.632812 L 216.390625 116.621094 C 216.414062 116.683594 216.441406 116.644531 216.464844 116.625 L 216.460938 116.632812 C 216.5 116.632812 216.542969 116.632812 216.582031 116.632812 L 216.574219 116.625 C 216.601562 116.683594 216.625 116.667969 216.652344 116.625 L 216.644531 116.632812 C 216.714844 116.578125 216.773438 116.5 216.855469 116.46875 C 217.519531 116.191406 216.496094 115.902344 217.027344 115.859375 C 217.105469 115.851562 217.070312 115.980469 217.078125 113.574219 C 217.082031 113.246094 217.210938 113.097656 217.539062 113.117188 C 218.214844 113.164062 218.902344 113.058594 219.554688 113.160156 C 220.105469 113.242188 219.921875 112.945312 219.925781 112.726562 C 219.929688 111.410156 219.921875 110.09375 219.921875 108.777344 C 219.921875 108.355469 220.371094 108.046875 220.75 108.183594 C 220.695312 107.421875 220.734375 106.65625 220.722656 105.886719 C 220.71875 105.785156 220.824219 105.765625 220.851562 105.691406 L 220.84375 105.695312 C 220.867188 105.671875 220.890625 105.648438 220.914062 105.625 L 220.902344 105.632812 C 220.917969 105.625 220.933594 105.617188 220.949219 105.609375 C 220.933594 105.59375 220.917969 105.578125 220.902344 105.5625 L 220.914062 105.570312 C 221.203125 105.359375 221.542969 105.414062 221.867188 105.398438 C 223.648438 105.324219 223.628906 105.464844 223.628906 105.8125 C 223.625 106.460938 223.625 107.109375 223.628906 107.753906 C 223.628906 107.957031 223.714844 108.078125 223.941406 108.039062 L 223.933594 108.046875 C 224 107.972656 224.074219 108.027344 224.148438 108.035156 L 224.152344 108.027344 C 224.191406 108.335938 224.339844 107.953125 224.40625 108.066406 L 224.40625 108.0625 C 224.507812 108.0625 224.492188 108.355469 224.671875 108.167969 Z M 224.664062 108.175781 " fill-opacity="1" fill-rule="nonzero"></path></g><path fill="#FFFFFF" d="M 226.445312 120.984375 C 226.328125 121.050781 226.339844 120.925781 226.410156 120.945312 C 226.425781 120.949219 226.433594 120.972656 226.445312 120.984375 Z M 226.445312 120.984375 " fill-opacity="1" fill-rule="nonzero"></path><path fill="#FFFFFF" d="M 199.210938 99.429688 L 199.191406 99.417969 L 199.214844 99.410156 Z M 199.210938 99.429688 " fill-opacity="1" fill-rule="nonzero"></path><path fill="#FFFFFF" d="M 226.871094 116.410156 L 226.898438 116.402344 L 226.894531 116.421875 Z M 226.871094 116.410156 " fill-opacity="1" fill-rule="nonzero"></path><path fill="#FFFFFF" d="M 225.648438 120.867188 C 225.621094 120.863281 225.578125 120.863281 225.574219 120.851562 C 225.546875 120.78125 225.589844 120.84375 225.640625 120.867188 C 225.644531 120.867188 225.648438 120.867188 225.648438 120.867188 Z M 225.648438 120.867188 " fill-opacity="1" fill-rule="nonzero"></path><path fill="#FFFFFF" d="M 226.25 120.929688 C 226.242188 120.890625 226.238281 120.851562 226.234375 120.816406 C 226.308594 120.828125 226.242188 120.84375 226.25 120.929688 Z M 226.25 120.929688 " fill-opacity="1" fill-rule="nonzero"></path><path fill="#FFFFFF" d="M 155.589844 121.226562 L 155.605469 121.234375 L 155.585938 121.242188 Z M 155.589844 121.226562 " fill-opacity="1" fill-rule="nonzero"></path><path fill="#FFFFFF" d="M 234.25 92.40625 C 234.316406 92.425781 234.28125 92.449219 234.25 92.46875 C 234.25 92.46875 234.257812 92.472656 234.257812 92.472656 C 234.257812 92.449219 234.257812 92.425781 234.257812 92.402344 Z M 234.25 92.40625 " fill-opacity="1" fill-rule="nonzero"></path><path fill="#FFFFFF" d="M 265.09375 104.4375 C 265.097656 104.453125 265.101562 104.464844 265.109375 104.480469 C 265.121094 104.464844 265.136719 104.453125 265.148438 104.4375 C 265.148438 104.4375 265.15625 104.453125 265.15625 104.453125 C 265.132812 104.453125 265.109375 104.453125 265.082031 104.453125 Z M 265.09375 104.4375 " fill-opacity="1" fill-rule="nonzero"></path><path fill="#FFFFFF" d="M 220.851562 105.628906 C 220.851562 105.585938 220.875 105.570312 220.914062 105.570312 C 220.914062 105.570312 220.902344 105.535156 220.902344 105.632812 C 220.917969 105.621094 220.867188 105.625 220.84375 105.625 Z M 220.851562 105.628906 " fill-opacity="1" fill-rule="nonzero"></path><path fill="#FFFFFF" d="M 220.851562 105.691406 C 220.804688 105.671875 220.800781 105.648438 220.851562 105.628906 C 220.851562 105.628906 220.84375 105.625 220.84375 105.625 C 220.84375 105.648438 220.84375 105.671875 220.84375 105.695312 Z M 220.851562 105.691406 " fill-opacity="1" fill-rule="nonzero"></path><path fill="#FFFFFF" d="M 210.449219 107.019531 C 210.445312 107.027344 210.441406 107.03125 210.4375 107.039062 C 210.429688 107.03125 210.421875 107.023438 210.410156 107.019531 C 210.433594 106.996094 210.425781 106.996094 210.449219 107.019531 Z M 210.449219 107.019531 " fill-opacity="1" fill-rule="nonzero"></path><path fill="#FFFFFF" d="M 223.941406 108.039062 C 223.925781 108.03125 223.910156 108.027344 223.894531 108.019531 C 223.902344 108.011719 223.910156 108.003906 223.917969 108 C 223.925781 108.019531 223.929688 108.050781 223.941406 108.039062 Z M 223.941406 108.039062 " fill-opacity="1" fill-rule="nonzero"></path><path fill="#FFFFFF" d="M 224.148438 108.035156 C 224.144531 108.03125 224.140625 108.023438 224.136719 108.015625 C 224.144531 108.019531 224.148438 108.023438 224.152344 108.027344 C 224.152344 108.027344 224.148438 108.035156 224.148438 108.035156 Z M 224.148438 108.035156 " fill-opacity="1" fill-rule="nonzero"></path><path fill="#FFFFFF" d="M 224.40625 108.066406 C 224.429688 108.070312 224.453125 108.070312 224.476562 108.074219 C 224.472656 108.082031 224.46875 108.089844 224.46875 108.097656 C 224.445312 108.085938 224.425781 108.074219 224.40625 108.0625 C 224.40625 108.0625 224.40625 108.066406 224.40625 108.066406 Z M 224.40625 108.066406 " fill-opacity="1" fill-rule="nonzero"></path><path fill="#FFFFFF" d="M 224.671875 108.167969 C 224.660156 108.15625 224.644531 108.148438 224.632812 108.136719 C 224.644531 108.132812 224.65625 108.128906 224.667969 108.125 C 224.664062 108.140625 224.664062 108.160156 224.664062 108.175781 C 224.664062 108.175781 224.671875 108.167969 224.671875 108.167969 Z M 224.671875 108.167969 " fill-opacity="1" fill-rule="nonzero"></path><path fill="#FFFFFF" d="M 216.214844 116.632812 C 216.222656 116.617188 216.234375 116.597656 216.242188 116.582031 C 216.253906 116.597656 216.261719 116.617188 216.273438 116.632812 C 216.273438 116.632812 216.304688 116.625 216.207031 116.625 Z M 216.214844 116.632812 " fill-opacity="1" fill-rule="nonzero"></path><path fill="#FFFFFF" d="M 216.394531 116.632812 C 216.417969 116.582031 216.441406 116.578125 216.460938 116.632812 C 216.460938 116.632812 216.464844 116.625 216.464844 116.625 C 216.441406 116.625 216.414062 116.625 216.390625 116.621094 Z M 216.394531 116.632812 " fill-opacity="1" fill-rule="nonzero"></path><path fill="#FFFFFF" d="M 216.582031 116.632812 C 216.605469 116.574219 216.625 116.570312 216.644531 116.632812 C 216.644531 116.632812 216.675781 116.625 216.578125 116.625 Z M 216.582031 116.632812 " fill-opacity="1" fill-rule="nonzero"></path><path fill="#FFFFFF" d="M 232.816406 92.28125 C 232.832031 92.269531 232.847656 92.261719 232.863281 92.25 C 232.847656 92.242188 232.832031 92.230469 232.816406 92.222656 C 232.816406 92.222656 232.832031 92.214844 232.832031 92.214844 C 232.832031 92.238281 232.832031 92.265625 232.832031 92.289062 Z M 232.816406 92.28125 " fill-opacity="1" fill-rule="nonzero"></path><path fill="#FFFFFF" d="M 214.007812 118.691406 C 214.003906 118.671875 214.003906 118.652344 214 118.632812 C 214.058594 118.652344 214.003906 118.664062 214 118.683594 C 214 118.683594 214.007812 118.691406 214.007812 118.691406 Z M 214.007812 118.691406 " fill-opacity="1" fill-rule="nonzero"></path><path fill="#FFFFFF" d="M 231.910156 92.5625 C 231.910156 92.570312 231.910156 92.574219 231.910156 92.582031 C 231.90625 92.578125 231.902344 92.578125 231.902344 92.574219 C 231.902344 92.570312 231.910156 92.5625 231.910156 92.5625 Z M 231.910156 92.5625 " fill-opacity="1" fill-rule="nonzero"></path><g fill="#FFFFFF" fill-opacity="1"><g transform="translate(2.543224, 137.129891)"><g><path d="M 2.09375 0 L 2.09375 -30.546875 L 9.78125 -30.546875 L 9.78125 -6.28125 L 23.359375 -6.28125 L 23.359375 0 Z M 2.09375 0 "></path></g></g></g><g fill="#FFFFFF" fill-opacity="1"><g transform="translate(26.679299, 137.129891)"><g><path d="M 15.984375 0.6875 C 12.765625 0.6875 10.019531 0 7.75 -1.375 C 5.488281 -2.757812 3.773438 -4.65625 2.609375 -7.0625 C 1.441406 -9.46875 0.859375 -12.210938 0.859375 -15.296875 C 0.859375 -18.367188 1.441406 -21.097656 2.609375 -23.484375 C 3.773438 -25.878906 5.488281 -27.769531 7.75 -29.15625 C 10.019531 -30.539062 12.765625 -31.234375 15.984375 -31.234375 C 19.191406 -31.234375 21.921875 -30.539062 24.171875 -29.15625 C 26.421875 -27.769531 28.132812 -25.878906 29.3125 -23.484375 C 30.5 -21.097656 31.09375 -18.367188 31.09375 -15.296875 C 31.09375 -12.210938 30.5 -9.46875 29.3125 -7.0625 C 28.132812 -4.65625 26.421875 -2.757812 24.171875 -1.375 C 21.921875 0 19.191406 0.6875 15.984375 0.6875 Z M 15.984375 -5.59375 C 17.828125 -5.59375 19.289062 -6.023438 20.375 -6.890625 C 21.457031 -7.765625 22.234375 -8.941406 22.703125 -10.421875 C 23.171875 -11.898438 23.40625 -13.523438 23.40625 -15.296875 C 23.40625 -17.054688 23.171875 -18.671875 22.703125 -20.140625 C 22.234375 -21.609375 21.457031 -22.773438 20.375 -23.640625 C 19.289062 -24.515625 17.828125 -24.953125 15.984375 -24.953125 C 14.128906 -24.953125 12.648438 -24.515625 11.546875 -23.640625 C 10.453125 -22.773438 9.675781 -21.609375 9.21875 -20.140625 C 8.769531 -18.671875 8.546875 -17.054688 8.546875 -15.296875 C 8.546875 -13.523438 8.769531 -11.898438 9.21875 -10.421875 C 9.675781 -8.941406 10.453125 -7.765625 11.546875 -6.890625 C 12.648438 -6.023438 14.128906 -5.59375 15.984375 -5.59375 Z M 15.984375 -5.59375 "></path></g></g></g><g fill="#FFFFFF" fill-opacity="1"><g transform="translate(58.632895, 137.129891)"><g><path d="M 15.671875 0.6875 C 12.453125 0.6875 9.738281 0 7.53125 -1.375 C 5.332031 -2.757812 3.671875 -4.65625 2.546875 -7.0625 C 1.421875 -9.46875 0.859375 -12.210938 0.859375 -15.296875 C 0.859375 -18.367188 1.421875 -21.097656 2.546875 -23.484375 C 3.671875 -25.878906 5.332031 -27.769531 7.53125 -29.15625 C 9.738281 -30.539062 12.453125 -31.234375 15.671875 -31.234375 C 18.460938 -31.234375 20.8125 -30.71875 22.71875 -29.6875 C 24.632812 -28.664062 26.128906 -27.25 27.203125 -25.4375 C 28.285156 -23.625 28.941406 -21.539062 29.171875 -19.1875 L 21.484375 -19.1875 C 21.203125 -20.863281 20.613281 -22.242188 19.71875 -23.328125 C 18.820312 -24.410156 17.363281 -24.953125 15.34375 -24.953125 C 13.65625 -24.953125 12.3125 -24.546875 11.3125 -23.734375 C 10.320312 -22.921875 9.613281 -21.785156 9.1875 -20.328125 C 8.757812 -18.878906 8.546875 -17.203125 8.546875 -15.296875 C 8.546875 -13.390625 8.757812 -11.703125 9.1875 -10.234375 C 9.613281 -8.765625 10.320312 -7.625 11.3125 -6.8125 C 12.3125 -6 13.65625 -5.59375 15.34375 -5.59375 C 17.382812 -5.59375 18.851562 -6.140625 19.75 -7.234375 C 20.65625 -8.335938 21.234375 -9.742188 21.484375 -11.453125 L 29.171875 -11.453125 C 28.941406 -9.054688 28.289062 -6.945312 27.21875 -5.125 C 26.15625 -3.300781 24.660156 -1.875 22.734375 -0.84375 C 20.816406 0.175781 18.460938 0.6875 15.671875 0.6875 Z M 15.671875 0.6875 "></path></g></g></g><g fill="#FFFFFF" fill-opacity="1"><g transform="translate(88.407842, 137.129891)"><g><path d="M -0.046875 0 L 11.015625 -30.546875 L 18.703125 -30.546875 L 29.734375 0 L 22.046875 0 L 20.078125 -6.359375 L 9.609375 -6.359375 L 7.640625 0 Z M 11.359375 -12.21875 L 18.375 -12.21875 L 14.90625 -23.5 L 14.828125 -23.5 Z M 11.359375 -12.21875 "></path></g></g></g><g fill="#FFFFFF" fill-opacity="1"><g transform="translate(118.182789, 137.129891)"><g><path d="M 2.09375 0 L 2.09375 -30.546875 L 9.78125 -30.546875 L 9.78125 -6.28125 L 23.359375 -6.28125 L 23.359375 0 Z M 2.09375 0 "></path></g></g></g><g fill="#FFFFFF" fill-opacity="1"><g transform="translate(2.543224, 180.738492)"><g><path d="M 2.09375 0 L 2.09375 -30.546875 L 16.921875 -30.546875 C 20.109375 -30.546875 22.625 -29.722656 24.46875 -28.078125 C 26.320312 -26.441406 27.25 -24.015625 27.25 -20.796875 C 27.25 -17.609375 26.320312 -15.1875 24.46875 -13.53125 C 22.625 -11.882812 20.109375 -11.0625 16.921875 -11.0625 L 9.78125 -11.0625 L 9.78125 0 Z M 9.78125 -17.34375 L 15.296875 -17.34375 C 16.628906 -17.34375 17.671875 -17.597656 18.421875 -18.109375 C 19.179688 -18.617188 19.5625 -19.515625 19.5625 -20.796875 C 19.5625 -22.078125 19.179688 -22.972656 18.421875 -23.484375 C 17.671875 -24.003906 16.628906 -24.265625 15.296875 -24.265625 L 9.78125 -24.265625 Z M 9.78125 -17.34375 "></path></g></g></g><g fill="#FFFFFF" fill-opacity="1"><g transform="translate(30.395829, 180.738492)"><g><path d="M 15.984375 0.6875 C 12.765625 0.6875 10.019531 0 7.75 -1.375 C 5.488281 -2.757812 3.773438 -4.65625 2.609375 -7.0625 C 1.441406 -9.46875 0.859375 -12.210938 0.859375 -15.296875 C 0.859375 -18.367188 1.441406 -21.097656 2.609375 -23.484375 C 3.773438 -25.878906 5.488281 -27.769531 7.75 -29.15625 C 10.019531 -30.539062 12.765625 -31.234375 15.984375 -31.234375 C 19.191406 -31.234375 21.921875 -30.539062 24.171875 -29.15625 C 26.421875 -27.769531 28.132812 -25.878906 29.3125 -23.484375 C 30.5 -21.097656 31.09375 -18.367188 31.09375 -15.296875 C 31.09375 -12.210938 30.5 -9.46875 29.3125 -7.0625 C 28.132812 -4.65625 26.421875 -2.757812 24.171875 -1.375 C 21.921875 0 19.191406 0.6875 15.984375 0.6875 Z M 15.984375 -5.59375 C 17.828125 -5.59375 19.289062 -6.023438 20.375 -6.890625 C 21.457031 -7.765625 22.234375 -8.941406 22.703125 -10.421875 C 23.171875 -11.898438 23.40625 -13.523438 23.40625 -15.296875 C 23.40625 -17.054688 23.171875 -18.671875 22.703125 -20.140625 C 22.234375 -21.609375 21.457031 -22.773438 20.375 -23.640625 C 19.289062 -24.515625 17.828125 -24.953125 15.984375 -24.953125 C 14.128906 -24.953125 12.648438 -24.515625 11.546875 -23.640625 C 10.453125 -22.773438 9.675781 -21.609375 9.21875 -20.140625 C 8.769531 -18.671875 8.546875 -17.054688 8.546875 -15.296875 C 8.546875 -13.523438 8.769531 -11.898438 9.21875 -10.421875 C 9.675781 -8.941406 10.453125 -7.765625 11.546875 -6.890625 C 12.648438 -6.023438 14.128906 -5.59375 15.984375 -5.59375 Z M 15.984375 -5.59375 "></path></g></g></g><g fill="#FFFFFF" fill-opacity="1"><g transform="translate(62.349424, 180.738492)"><g><path d="M 2.09375 0 L 2.09375 -30.546875 L 9.78125 -30.546875 L 9.78125 -6.28125 L 23.359375 -6.28125 L 23.359375 0 Z M 2.09375 0 "></path></g></g></g><g fill="#FFFFFF" fill-opacity="1"><g transform="translate(86.4855, 180.738492)"><g><path d="M 2.140625 0 L 2.140625 -30.546875 L 9.828125 -30.546875 L 9.828125 0 Z M 2.140625 0 "></path></g></g></g><g fill="#FFFFFF" fill-opacity="1"><g transform="translate(98.404023, 180.738492)"><g><path d="M 9.609375 0 L 9.609375 -24.265625 L 0.71875 -24.265625 L 0.71875 -30.546875 L 26.140625 -30.546875 L 26.140625 -24.265625 L 17.296875 -24.265625 L 17.296875 0 Z M 9.609375 0 "></path></g></g></g><g fill="#FFFFFF" fill-opacity="1"><g transform="translate(125.274096, 180.738492)"><g><path d="M 2.140625 0 L 2.140625 -30.546875 L 9.828125 -30.546875 L 9.828125 0 Z M 2.140625 0 "></path></g></g></g><g fill="#FFFFFF" fill-opacity="1"><g transform="translate(137.19262, 180.738492)"><g><path d="M 15.671875 0.6875 C 12.453125 0.6875 9.738281 0 7.53125 -1.375 C 5.332031 -2.757812 3.671875 -4.65625 2.546875 -7.0625 C 1.421875 -9.46875 0.859375 -12.210938 0.859375 -15.296875 C 0.859375 -18.367188 1.421875 -21.097656 2.546875 -23.484375 C 3.671875 -25.878906 5.332031 -27.769531 7.53125 -29.15625 C 9.738281 -30.539062 12.453125 -31.234375 15.671875 -31.234375 C 18.460938 -31.234375 20.8125 -30.71875 22.71875 -29.6875 C 24.632812 -28.664062 26.128906 -27.25 27.203125 -25.4375 C 28.285156 -23.625 28.941406 -21.539062 29.171875 -19.1875 L 21.484375 -19.1875 C 21.203125 -20.863281 20.613281 -22.242188 19.71875 -23.328125 C 18.820312 -24.410156 17.363281 -24.953125 15.34375 -24.953125 C 13.65625 -24.953125 12.3125 -24.546875 11.3125 -23.734375 C 10.320312 -22.921875 9.613281 -21.785156 9.1875 -20.328125 C 8.757812 -18.878906 8.546875 -17.203125 8.546875 -15.296875 C 8.546875 -13.390625 8.757812 -11.703125 9.1875 -10.234375 C 9.613281 -8.765625 10.320312 -7.625 11.3125 -6.8125 C 12.3125 -6 13.65625 -5.59375 15.34375 -5.59375 C 17.382812 -5.59375 18.851562 -6.140625 19.75 -7.234375 C 20.65625 -8.335938 21.234375 -9.742188 21.484375 -11.453125 L 29.171875 -11.453125 C 28.941406 -9.054688 28.289062 -6.945312 27.21875 -5.125 C 26.15625 -3.300781 24.660156 -1.875 22.734375 -0.84375 C 20.816406 0.175781 18.460938 0.6875 15.671875 0.6875 Z M 15.671875 0.6875 "></path></g></g></g><g fill="#FFFFFF" fill-opacity="1"><g transform="translate(166.967567, 180.738492)"><g><path d="M 14.5625 0.6875 C 11.914062 0.6875 9.546875 0.265625 7.453125 -0.578125 C 5.359375 -1.421875 3.695312 -2.644531 2.46875 -4.25 C 1.25 -5.863281 0.640625 -7.789062 0.640625 -10.03125 L 8.328125 -10.03125 C 8.328125 -8.957031 8.609375 -8.09375 9.171875 -7.4375 C 9.742188 -6.78125 10.5 -6.304688 11.4375 -6.015625 C 12.382812 -5.734375 13.425781 -5.59375 14.5625 -5.59375 C 15.988281 -5.59375 17.078125 -5.84375 17.828125 -6.34375 C 18.585938 -6.84375 18.96875 -7.476562 18.96875 -8.25 C 18.96875 -9.070312 18.628906 -9.707031 17.953125 -10.15625 C 17.285156 -10.613281 16.382812 -11.015625 15.25 -11.359375 C 14.113281 -11.703125 12.816406 -12.085938 11.359375 -12.515625 C 9.617188 -13.023438 7.992188 -13.648438 6.484375 -14.390625 C 4.984375 -15.128906 3.773438 -16.101562 2.859375 -17.3125 C 1.953125 -18.53125 1.5 -20.078125 1.5 -21.953125 C 1.5 -24.179688 2.023438 -25.976562 3.078125 -27.34375 C 4.128906 -28.707031 5.546875 -29.695312 7.328125 -30.3125 C 9.109375 -30.925781 11.09375 -31.234375 13.28125 -31.234375 C 15.675781 -31.234375 17.832031 -30.832031 19.75 -30.03125 C 21.675781 -29.226562 23.222656 -28.085938 24.390625 -26.609375 C 25.554688 -25.128906 26.171875 -23.351562 26.234375 -21.28125 L 18.546875 -21.28125 C 18.367188 -22.445312 17.816406 -23.347656 16.890625 -23.984375 C 15.960938 -24.628906 14.757812 -24.953125 13.28125 -24.953125 C 12.144531 -24.953125 11.175781 -24.757812 10.375 -24.375 C 9.582031 -23.988281 9.1875 -23.367188 9.1875 -22.515625 C 9.1875 -21.578125 9.671875 -20.882812 10.640625 -20.4375 C 11.609375 -20 13.046875 -19.507812 14.953125 -18.96875 C 16.398438 -18.570312 17.816406 -18.128906 19.203125 -17.640625 C 20.585938 -17.160156 21.84375 -16.554688 22.96875 -15.828125 C 24.09375 -15.097656 24.988281 -14.175781 25.65625 -13.0625 C 26.320312 -11.957031 26.65625 -10.59375 26.65625 -8.96875 C 26.65625 -6.039062 25.59375 -3.695312 23.46875 -1.9375 C 21.351562 -0.1875 18.382812 0.6875 14.5625 0.6875 Z M 14.5625 0.6875 "></path></g></g></g><g fill="#FFFFFF" fill-opacity="1"><g transform="translate(194.606574, 180.738492)"><g></g></g></g><g fill="#FFFFFF" fill-opacity="1"><g transform="translate(201.868758, 180.738492)"><g><path d="M 2.09375 0 L 2.09375 -30.546875 L 9.78125 -30.546875 L 9.78125 -6.28125 L 23.359375 -6.28125 L 23.359375 0 Z M 2.09375 0 "></path></g></g></g><g fill="#FFFFFF" fill-opacity="1"><g transform="translate(226.004834, 180.738492)"><g><path d="M -0.046875 0 L 11.015625 -30.546875 L 18.703125 -30.546875 L 29.734375 0 L 22.046875 0 L 20.078125 -6.359375 L 9.609375 -6.359375 L 7.640625 0 Z M 11.359375 -12.21875 L 18.375 -12.21875 L 14.90625 -23.5 L 14.828125 -23.5 Z M 11.359375 -12.21875 "></path></g></g></g><g fill="#FFFFFF" fill-opacity="1"><g transform="translate(255.779781, 180.738492)"><g><path d="M 2.09375 0 L 2.09375 -30.546875 L 16.921875 -30.546875 C 20.109375 -30.546875 22.519531 -29.914062 24.15625 -28.65625 C 25.789062 -27.40625 26.609375 -25.472656 26.609375 -22.859375 C 26.609375 -20.972656 26.128906 -19.523438 25.171875 -18.515625 C 24.222656 -17.503906 23.125 -16.785156 21.875 -16.359375 L 21.875 -16.28125 C 22.957031 -16.101562 23.945312 -15.726562 24.84375 -15.15625 C 25.738281 -14.59375 26.457031 -13.8125 27 -12.8125 C 27.539062 -11.820312 27.8125 -10.554688 27.8125 -9.015625 C 27.8125 -6.847656 27.375 -5.101562 26.5 -3.78125 C 25.632812 -2.457031 24.414062 -1.492188 22.84375 -0.890625 C 21.28125 -0.296875 19.445312 0 17.34375 0 Z M 9.78125 -18.203125 L 15.078125 -18.203125 C 16.160156 -18.203125 17.070312 -18.390625 17.8125 -18.765625 C 18.550781 -19.148438 18.921875 -19.972656 18.921875 -21.234375 C 18.921875 -22.484375 18.550781 -23.300781 17.8125 -23.6875 C 17.070312 -24.070312 16.160156 -24.265625 15.078125 -24.265625 L 9.78125 -24.265625 Z M 9.78125 -6.28125 L 15.296875 -6.28125 C 16.890625 -6.28125 18.09375 -6.53125 18.90625 -7.03125 C 19.71875 -7.53125 20.125 -8.488281 20.125 -9.90625 C 20.125 -11.332031 19.71875 -12.285156 18.90625 -12.765625 C 18.09375 -13.253906 16.890625 -13.5 15.296875 -13.5 L 9.78125 -13.5 Z M 9.78125 -6.28125 "></path></g></g></g></svg> 